<?xml version="1.0" encoding="utf-8"?>
<!-- Generator: Adobe Illustrator 21.1.0, SVG Export Plug-In . SVG Version: 6.00 Build 0)  -->
<svg version="1.1" id="Layer_1" xmlns="http://www.w3.org/2000/svg" xmlns:xlink="http://www.w3.org/1999/xlink" x="0px" y="0px"
	 viewBox="0 0 363.5 387.7" style="enable-background:new 0 0 363.5 387.7;" xml:space="preserve">
<style type="text/css">
	.st0{fill:none;stroke:#A5C3D2;stroke-width:4.52;stroke-linecap:round;stroke-linejoin:round;}
	.st1{fill:none;stroke:#A5C3D2;stroke-width:1.84;stroke-linecap:round;stroke-linejoin:round;}
	.st2{fill:#92278F;}
	.st3{fill:#00A651;}
	.st4{fill:#2E3192;}
	.st5{fill:#FFCB05;}
	.st6{fill:#8ED8F8;}
	.st7{fill:#EC008C;}
	.st8{fill:#FFF200;}
	.st9{fill:#EEE809;}
	.st10{fill:#00AEEF;}
	.st11{fill:#F173AC;}
	.st12{fill:#A6CE39;}
	.st13{fill:#F58220;}
	.st14{fill:#ED1C24;}
	.st15{fill:#FFDD00;}
	.st16{fill:#ED1651;}
	.st17{fill:#0095DA;}
</style>
<title>Untitled-1</title>
<g>
	<path class="st0" d="M325.9,99c59,79.6,42.4,192-37.3,251.1c-79.6,59-192,42.4-251.1-37.3C-9.5,249.3-9.5,162.5,37.6,99"/>
	<path class="st1" d="M323.3,110.2c53,78.2,32.5,184.5-45.7,237.5c-78.2,53-184.5,32.5-237.5-45.7c-39.2-57.9-39.2-133.9,0-191.8"/>
	<path class="st2" d="M66.3,292.3l-14.9-27.9H38.5l20.3,37.1h14.8l20.4-37.1H81.2L66.3,292.3z M114.3,291.3v-10H94.1v10H114.3z
		 M154.9,281.4h-16.6l22.4,20.3h12.9l-15.2-13.2v-0.2c1.9,0,3.7-0.2,5.5-0.7c1.3-0.4,2.6-1.1,3.5-2.1c0.9-1.1,1.6-2.4,1.9-3.7
		c0.4-1.9,0.7-3.8,0.6-5.7c0.1-1.9-0.2-3.8-0.8-5.6c-0.5-1.4-1.3-2.6-2.4-3.5c-1.3-0.9-2.7-1.6-4.3-1.9c-2.2-0.4-4.3-0.6-6.5-0.6
		h-30.9v37.2h11.6v-28h18.4c1.1,0,2.2,0.4,3,1.1c1.6,1.3,1.7,3.6,0.4,5.2c-0.1,0.2-0.3,0.3-0.4,0.4c-0.9,0.7-2,1-3.1,1L154.9,281.4z
		 M188.5,293v-6.2h27.4v-7.5h-27.4v-6.3h29.2v-8.6h-40.8v37.2h40.9V293L188.5,293z M260.9,295.4l3.4,6.3h12.9L257,264.4h-14.9
		l-20.4,37.3h12.9l3.5-6.4L260.9,295.4z M249.5,273.9l7.2,13.4h-14.4L249.5,273.9L249.5,273.9z M313.2,289.8c4.3,0,7.3-1.1,9.1-3.3
		c1.8-2.2,2.7-5.7,2.7-10.4c0.1-1.9-0.2-3.8-0.8-5.6c-0.5-1.4-1.3-2.6-2.5-3.5c-1.3-0.9-2.7-1.6-4.3-1.9c-2.1-0.4-4.3-0.6-6.5-0.6
		H281v37.3h11.6v-27.9h17.3c1.1,0,2.2,0.4,3,1.1c1.6,1.2,1.9,3.4,0.7,5c-0.2,0.3-0.4,0.5-0.7,0.7c-0.9,0.7-2,1.1-3.2,1.1h-15.5
		l9.1,8.2L313.2,289.8z"/>
	<path class="st3" d="M94.2,314.4c-0.3-0.1-0.6-0.2-0.9-0.3c-0.4-0.1-0.7-0.1-1.1-0.1c-1.4,0-2.8,0.4-4,1.2
		c-1.1,0.8-1.8,1.9-2.1,3.2c-0.3,1.1-0.1,2.3,0.6,3.2c0.8,0.9,1.9,1.3,3.1,1.3c0.4,0,0.8,0,1.3-0.2c0.4-0.1,0.9-0.3,1.3-0.5
		c0.1,0.2,0.2,0.4,0.2,0.5c0,0.1,0,0.3,0,0.4c-0.1,0.3-0.4,0.6-0.9,0.8c-0.6,0.2-1.3,0.3-2,0.3c-0.8,0-1.6-0.1-2.4-0.4
		c-0.7-0.2-1.3-0.6-1.8-1.1c-0.5-0.5-0.9-1.2-1.1-1.9c-0.2-0.8-0.2-1.6,0-2.4c0.2-0.9,0.6-1.8,1.2-2.5c0.6-0.8,1.4-1.5,2.3-2.1
		c0.7-0.4,1.5-0.8,2.4-1c0.9-0.2,1.8-0.4,2.7-0.4c0.5,0,1,0,1.4,0.2c0.2,0.1,0.4,0.4,0.3,0.6c0,0.2-0.1,0.3-0.2,0.4
		C94.5,314,94.3,314.2,94.2,314.4L94.2,314.4z M104.9,323.8c-0.2,0.1-0.5,0.2-0.7,0.3c-0.2,0.1-0.4,0.1-0.6,0.1
		c-0.3,0-0.4-0.1-0.5-0.2c-0.1-0.3-0.1-0.6,0-0.8c0.1-0.5,0.3-1.5,0.7-2.8s0.6-2.6,0.8-3.5c0.2-0.8,0.3-1.7,0.4-2.6
		c0.1-0.4,0-0.9-0.1-1.3c0.2-0.1,0.4-0.2,0.7-0.3c0.2-0.1,0.4-0.1,0.6-0.1c0.3,0,0.4,0.1,0.5,0.2c0.1,0.3,0.1,0.5,0,0.8
		c-0.1,0.3-0.3,1.2-0.7,2.7s-0.7,2.7-0.9,3.8c-0.2,0.8-0.3,1.7-0.4,2.5C104.7,322.9,104.8,323.3,104.9,323.8L104.9,323.8z
		 M109,319.4c0.4,0.1,0.8,0.1,1.1,0.1c0.4,0,0.9,0,1.4,0c0.5,0,0.9,0,1.4-0.2c0.3-0.1,0.4-0.4,0.5-0.7c0.1-0.4,0-0.8-0.3-1.1
		c-0.4-0.3-0.8-0.5-1.3-0.4c-0.6,0-1.2,0.2-1.7,0.6C109.6,318.1,109.2,318.7,109,319.4L109,319.4z M113,322.5
		c0.1,0.1,0.1,0.3,0.2,0.4c0,0.1,0,0.2,0,0.4c-0.1,0.3-0.3,0.5-0.8,0.7c-0.6,0.2-1.2,0.3-1.8,0.3c-1,0.1-2.1-0.3-2.8-1
		c-0.6-0.8-0.8-1.9-0.5-2.8c0.2-1.2,0.8-2.2,1.7-3c0.8-0.8,1.9-1.2,3.1-1.2c0.7,0,1.5,0.2,2,0.7c0.5,0.5,0.6,1.2,0.4,1.9
		c-0.1,0.6-0.5,1-1,1.3c-0.8,0.3-1.6,0.4-2.5,0.4c-0.4,0-0.8,0-1.3,0s-0.8-0.1-1.2-0.1v0.1c-0.2,0.7-0.1,1.4,0.3,1.9
		c0.5,0.5,1.2,0.8,1.9,0.7c0.4,0,0.8,0,1.1-0.2C112.3,322.9,112.6,322.7,113,322.5L113,322.5z M116.8,322.6c0.3,0.2,0.6,0.3,0.9,0.4
		c0.3,0.1,0.6,0.1,0.9,0.1c0.8,0,1.6-0.3,2.3-0.9c0.7-0.6,1.1-1.4,1.3-2.3c0.2-0.6,0.1-1.3-0.3-1.9c-0.4-0.5-1-0.8-1.6-0.7
		c-0.4,0-0.7,0.1-1.1,0.2c-0.5,0.2-0.9,0.4-1.3,0.6l0,0c-0.2,1-0.4,1.7-0.5,2.2c-0.1,0.3-0.1,0.5-0.2,0.8L116.8,322.6L116.8,322.6z
		 M115.2,323.5c0.2-0.8,0.5-1.6,0.7-2.6c0.2-1,0.5-2.2,0.8-3.5c0.3-1.6,0.5-2.7,0.6-3.2c0.1-0.4,0-0.8-0.1-1.3
		c0.2-0.1,0.5-0.2,0.7-0.3c0.2,0,0.3-0.1,0.5-0.1c0.2,0,0.4,0.1,0.4,0.2c0.1,0.3,0.1,0.6,0,0.8c0,0.1-0.1,0.5-0.3,1.3
		s-0.4,1.5-0.6,2.3c0.5-0.3,1-0.5,1.5-0.7c0.4-0.1,0.9-0.2,1.3-0.2c0.9-0.1,1.7,0.3,2.3,1c0.5,0.7,0.7,1.7,0.4,2.6
		c-0.3,1.2-1,2.3-1.9,3.1c-1,0.8-2.2,1.2-3.5,1.2c-0.5,0-0.9-0.1-1.4-0.2C116.1,323.9,115.6,323.7,115.2,323.5L115.2,323.5z
		 M127,317.9c0.4-0.5,0.9-0.9,1.4-1.2c0.3-0.2,0.7-0.4,1.2-0.4c0.3,0,0.5,0.1,0.7,0.3c0.2,0.2,0.2,0.4,0.2,0.7
		c0,0.2-0.1,0.4-0.3,0.5c-0.2,0.2-0.4,0.4-0.6,0.5c0-0.2-0.1-0.4-0.2-0.5c-0.1-0.1-0.3-0.2-0.4-0.2c-0.3,0-0.7,0.2-0.9,0.4
		c-0.4,0.3-0.8,0.7-1.1,1.1c-0.1,0.2-0.1,0.5-0.2,0.7s-0.1,0.5-0.2,0.7c-0.2,0.7-0.2,1.3-0.3,2c0,0.4,0,0.9,0.1,1.3
		c-0.2,0.1-0.4,0.2-0.7,0.3c-0.2,0.1-0.4,0.1-0.6,0.1c-0.3,0-0.4-0.1-0.5-0.2c-0.1-0.3-0.1-0.5,0-0.8c0-0.1,0.1-0.7,0.4-1.6
		c0.3-1,0.5-1.8,0.6-2.6c0.1-0.5,0.2-1,0.3-1.5c0-0.3,0-0.6-0.1-1l0.3-0.1c0.1,0,0.2,0,0.3,0c0.2,0,0.5,0.1,0.6,0.2
		c0.1,0.2,0.2,0.4,0.1,0.7c0,0.1,0,0.2-0.1,0.3L127,317.9L127,317.9z M136.6,323.7c-0.2-0.3-0.2-0.7-0.2-1.1c0-0.6,0.1-1.2,0.3-1.8
		c0.1-0.3,0.1-0.6,0.3-1s0.2-0.7,0.2-0.9c0.2-0.7,0.1-1.5-0.3-2.1c-0.5-0.5-1.3-0.8-2-0.7c-0.7,0-1.4,0.1-2,0.4
		c-0.5,0.1-0.8,0.5-1,1c0,0.2,0,0.3,0,0.5c0.1,0.1,0.2,0.2,0.4,0.2c0.2-0.3,0.6-0.6,0.9-0.8c0.4-0.2,0.8-0.3,1.3-0.2
		c0.5,0,0.9,0.1,1.3,0.4c0.3,0.4,0.3,0.8,0.2,1.3v0.2c0,0.1,0,0.1,0,0.2l-0.7-0.1h-0.6c-1,0-2,0.2-2.9,0.7c-0.7,0.4-1.3,1.2-1.4,2
		c-0.2,0.6,0,1.3,0.4,1.7c0.5,0.5,1.1,0.7,1.8,0.7c0.4,0,0.9-0.1,1.3-0.2c0.5-0.2,0.9-0.4,1.4-0.8c-0.1,0.2-0.1,0.5,0,0.7
		c0.1,0.2,0.3,0.2,0.5,0.2c0.2,0,0.3,0,0.5-0.1c0.2-0.1,0.4-0.2,0.6-0.3L136.6,323.7z M135.6,320.2c0,0.1,0,0.3-0.1,0.5l-0.1,0.5
		l-0.1,0.5c0,0.2-0.1,0.4-0.1,0.6c-0.3,0.3-0.7,0.5-1.1,0.7c-0.4,0.1-0.7,0.2-1.1,0.2c-0.4,0-0.8-0.1-1.1-0.4
		c-0.3-0.3-0.3-0.7-0.2-1c0.1-0.5,0.4-1,0.9-1.2c0.6-0.3,1.3-0.4,2-0.4h0.5L135.6,320.2L135.6,320.2z M140.3,317.8h-0.7
		c-0.2,0-0.3,0-0.4-0.1c-0.1-0.1-0.1-0.2-0.1-0.3c0-0.1,0.1-0.2,0.1-0.2c0.1-0.1,0.1-0.2,0.2-0.3h0.5h0.7h0.1l0.1-0.3l0.1-0.3
		c0.1-0.4,0.1-0.7,0.1-1.1c0-0.3,0-0.6-0.1-0.8c0.2-0.1,0.4-0.2,0.7-0.3c0.2-0.1,0.3-0.1,0.5-0.1c0.2,0,0.3,0.1,0.4,0.2
		c0.1,0.2,0.1,0.4,0,0.7c0,0.1-0.1,0.5-0.3,1.2l-0.2,0.6l0.9-0.1h0.7c0.1,0,0.3,0,0.4,0.1c0.1,0.1,0.1,0.2,0,0.3
		c0,0.1-0.1,0.2-0.1,0.3c-0.1,0.1-0.2,0.3-0.3,0.4c-0.1,0-0.3-0.1-0.4-0.1h-0.6H142h-0.5c-0.2,0.8-0.4,1.5-0.5,2s-0.2,1-0.3,1.3
		c-0.1,0.5-0.2,1-0.1,1.5c0,0.3,0.3,0.5,0.6,0.4c0.1,0,0.2,0,0.3,0c0.1,0,0.2-0.1,0.3-0.2c0,0.1,0,0.2,0,0.3c0,0.1,0,0.1,0,0.2
		c-0.1,0.3-0.2,0.5-0.5,0.6c-0.3,0.2-0.6,0.3-0.9,0.3c-0.5,0.1-0.9-0.2-1.2-0.6c-0.2-0.6-0.2-1.2,0-1.7c0-0.2,0.2-0.8,0.5-1.8
		C139.9,319.3,140.1,318.5,140.3,317.8L140.3,317.8z M145.9,323.8c-0.2,0.1-0.5,0.2-0.7,0.3c-0.2,0.1-0.4,0.1-0.6,0.1
		c-0.3,0-0.4-0.1-0.5-0.2c-0.1-0.3-0.1-0.6,0-0.8c0.1-0.2,0.2-0.8,0.4-1.6c0.2-0.8,0.4-1.6,0.5-2.2c0.1-0.5,0.2-1.1,0.3-1.6
		c0-0.3,0-0.7-0.1-1c0.2-0.1,0.4-0.2,0.7-0.3c0.2-0.1,0.4-0.1,0.6-0.1c0.3,0,0.4,0.1,0.5,0.2c0.1,0.2,0.1,0.4,0,0.7
		c0,0.1-0.1,0.5-0.4,1.4c-0.2,0.8-0.4,1.6-0.6,2.4c-0.1,0.6-0.2,1.2-0.3,1.8C145.7,323.1,145.8,323.5,145.9,323.8L145.9,323.8z
		 M148,313.9c-0.1,0.3-0.2,0.6-0.5,0.8c-0.2,0.2-0.6,0.3-0.9,0.3c-0.2,0-0.5-0.1-0.6-0.2c-0.1-0.2-0.2-0.4-0.1-0.6
		c0.1-0.3,0.2-0.6,0.5-0.8c0.2-0.2,0.5-0.3,0.9-0.3c0.2,0,0.5,0.1,0.6,0.3C148,313.4,148.1,313.7,148,313.9L148,313.9z M150.8,318.1
		c-0.1,0.6-0.3,1.2-0.5,1.9c-0.2,0.7-0.3,1-0.3,1.1c-0.1,0.5-0.2,1.1-0.3,1.7c0,0.4,0,0.7,0.1,1.1c-0.2,0.1-0.4,0.2-0.7,0.3
		c-0.2,0.1-0.4,0.1-0.6,0.1c-0.3,0-0.4-0.1-0.5-0.2c-0.1-0.3-0.1-0.6,0-0.9c0-0.1,0.1-0.6,0.4-1.5s0.5-1.7,0.6-2.5
		c0.1-0.6,0.2-1.1,0.3-1.7c0-0.4,0-0.7-0.1-1.1l0.4-0.1c0.1,0,0.2,0,0.4,0c0.4-0.1,0.7,0.2,0.8,0.6c0,0.1,0,0.2,0,0.3
		c0.4-0.3,0.9-0.5,1.4-0.7c0.4-0.1,0.9-0.2,1.4-0.2c0.5,0,0.9,0.1,1.4,0.3c0.4,0.2,0.6,0.6,0.8,1c0.1,0.3,0.1,0.7,0.1,1
		c0,0.6-0.1,1.1-0.3,1.7l-0.1,0.6c-0.1,0.3-0.1,0.5-0.2,0.8c-0.1,0.5-0.2,0.9-0.2,1.4c0,0.3,0,0.6,0.1,0.9c-0.2,0.1-0.5,0.2-0.7,0.3
		c-0.2,0.1-0.3,0.1-0.5,0.1c-0.3,0-0.4-0.1-0.5-0.2c-0.1-0.2-0.1-0.5,0-0.7c0-0.2,0.2-0.7,0.4-1.4s0.3-1.3,0.4-1.8
		c0.2-0.7,0.2-1.4,0-2.1c-0.3-0.5-0.8-0.7-1.3-0.6c-0.4,0-0.8,0.1-1.1,0.2C151.5,317.7,151.1,317.9,150.8,318.1L150.8,318.1z
		 M159.2,323.6L159.2,323.6c-0.4,0.1-0.8,0.4-1.1,0.6c-0.3,0.2-0.4,0.5-0.5,0.9c-0.1,0.4,0,0.9,0.4,1.2c0.5,0.3,1.1,0.5,1.6,0.5
		c0.6,0,1.2-0.1,1.8-0.4c0.4-0.2,0.7-0.6,0.9-1c0.1-0.6-0.8-1.2-2.9-1.7L159.2,323.6L159.2,323.6z M160.9,320.4c0.5,0,1-0.2,1.5-0.5
		c0.4-0.3,0.7-0.7,0.8-1.2c0.1-0.4,0-0.9-0.3-1.2c-0.3-0.3-0.8-0.5-1.3-0.5c-0.5,0-1,0.1-1.5,0.4c-0.4,0.3-0.7,0.7-0.8,1.2
		c-0.1,0.4,0,0.9,0.3,1.2C160,320.3,160.4,320.5,160.9,320.4z M159.2,321.1c-0.2,0.2-0.4,0.4-0.6,0.6c-0.1,0.2-0.2,0.3-0.3,0.5
		c0,0.1,0,0.3,0,0.4c0,0.1,0.1,0.2,0.2,0.3c-0.6,0.2-1.1,0.6-1.6,1c-0.4,0.4-0.6,0.8-0.8,1.4c-0.2,0.6,0,1.3,0.5,1.8
		c0.7,0.5,1.5,0.7,2.4,0.7c1.1,0,2.1-0.2,3-0.8c0.8-0.4,1.3-1.1,1.5-2c0.1-0.4,0.1-0.9-0.3-1.3c-0.5-0.4-1.2-0.7-1.9-0.8l-0.5-0.1
		c-1-0.2-1.4-0.5-1.4-0.9c0-0.1,0.1-0.2,0.1-0.3c0.1-0.1,0.2-0.2,0.3-0.3h0.4h0.3c0.8,0,1.7-0.2,2.3-0.7c0.6-0.4,1.1-1,1.3-1.7
		c0-0.2,0-0.5,0-0.7c0-0.3-0.1-0.5-0.3-0.7c0.4,0,0.8-0.1,1.1-0.3c0.2-0.1,0.4-0.4,0.4-0.6c0-0.1,0-0.3,0-0.4c0-0.1-0.1-0.2-0.2-0.3
		c-0.2,0.2-0.4,0.3-0.6,0.4c-0.5,0.2-0.9,0.3-1.4,0.4c-0.2-0.1-0.5-0.3-0.8-0.3c-0.3-0.1-0.5-0.1-0.8-0.1c-0.9,0-1.7,0.3-2.5,0.8
		c-0.7,0.5-1.1,1.2-1.3,2c-0.1,0.4-0.1,0.9,0.1,1.3C158.4,320.7,158.8,321,159.2,321.1L159.2,321.1z M174.5,314
		c-0.2,0.9-0.4,1.7-0.6,2.5c-0.2,0.8-0.4,1.6-0.5,2.3h0.4c1,0,1.9-0.2,2.7-0.8c0.7-0.5,1.2-1.2,1.4-2.1c0.2-0.6,0-1.2-0.3-1.6
		c-0.5-0.4-1.1-0.6-1.8-0.6c-0.2,0-0.4,0-0.6,0L174.5,314L174.5,314z M176,319.4c0.5,0.3,0.9,0.7,1.2,1.2l0.3,0.4
		c0.4,0.5,0.8,1,1.3,1.5c0.3,0.3,0.6,0.5,1,0.7c-0.2,0.3-0.4,0.6-0.7,0.9c-0.2,0.2-0.4,0.3-0.7,0.3c-0.2,0-0.4-0.1-0.6-0.2
		c-0.3-0.2-0.5-0.5-0.7-0.8c-0.2-0.3-0.4-0.7-0.7-1.1c-0.9-1.5-1.8-2.3-2.5-2.3h-0.3h-0.5c-0.2,1.2-0.4,2-0.4,2.6
		c0,0.4,0,0.8,0.1,1.3c-0.2,0.1-0.5,0.2-0.8,0.3c-0.2,0.1-0.4,0.1-0.6,0.1c-0.3,0-0.5-0.1-0.5-0.2c-0.1-0.3-0.1-0.6,0-0.9
		c0-0.2,0.2-0.8,0.5-2.1s0.6-2.4,0.8-3.5c0.3-1.4,0.5-2.4,0.5-3.1c0.1-0.5,0.1-1,0-1.5l2.2-0.1l1.3-0.1c1-0.1,1.9,0.2,2.7,0.8
		c0.6,0.6,0.8,1.6,0.5,2.4c-0.2,0.8-0.6,1.6-1.1,2.2C177.6,318.7,176.9,319.2,176,319.4L176,319.4z M185.8,323
		c-0.4,0.4-0.9,0.7-1.4,1c-0.5,0.2-1,0.3-1.5,0.3c-0.7,0.1-1.4-0.2-1.9-0.8c-0.4-0.7-0.5-1.5-0.2-2.3c0-0.2,0.1-0.6,0.3-1.2
		c0.1-0.6,0.3-1,0.3-1.4c0.1-0.4,0.1-0.8,0.2-1.2c0-0.3,0-0.6-0.1-0.8c0.2-0.1,0.4-0.2,0.7-0.3c0.2,0,0.3-0.1,0.5-0.1
		c0.3,0,0.4,0.1,0.5,0.2c0.1,0.2,0.1,0.5,0,0.7c-0.1,0.3-0.2,0.8-0.4,1.5s-0.4,1.4-0.5,1.8c-0.2,0.7-0.2,1.4-0.1,2.1
		c0.2,0.4,0.5,0.6,1.1,0.6c0.5,0,0.9-0.1,1.3-0.3c0.5-0.3,0.9-0.6,1.3-1c0.1-0.3,0.2-0.7,0.3-1.1s0.2-0.8,0.3-1.2
		c0.1-0.6,0.2-1.2,0.3-1.8c0-0.4,0-0.8-0.1-1.1c0.2-0.1,0.5-0.2,0.7-0.3c0.2-0.1,0.4-0.1,0.5-0.1c0.2,0,0.4,0.1,0.4,0.2
		c0.1,0.3,0,0.7-0.1,1c0,0.2-0.2,0.7-0.4,1.5s-0.4,1.5-0.5,2c-0.1,0.6-0.2,1.2-0.3,1.8c0,0.3,0,0.7,0.1,1c-0.2,0.1-0.5,0.2-0.7,0.3
		c-0.2,0-0.3,0.1-0.5,0.1c-0.2,0-0.4-0.1-0.4-0.2C185.7,323.7,185.7,323.3,185.8,323L185.8,323z M191.9,317.9
		c0.4-0.5,0.9-0.9,1.4-1.2c0.3-0.2,0.7-0.4,1.2-0.4c0.3,0,0.5,0.1,0.7,0.3c0.2,0.2,0.2,0.4,0.2,0.7c0,0.2-0.1,0.4-0.3,0.5
		c-0.2,0.2-0.4,0.4-0.6,0.5c0-0.2-0.1-0.4-0.2-0.5c-0.1-0.1-0.3-0.2-0.4-0.2c-0.3,0-0.7,0.2-0.9,0.4c-0.4,0.3-0.8,0.7-1.1,1.1
		c-0.1,0.2-0.1,0.5-0.2,0.7s-0.1,0.5-0.2,0.7c-0.1,0.7-0.2,1.3-0.3,2c0,0.4,0,0.9,0.1,1.3c-0.2,0.1-0.4,0.2-0.7,0.3
		c-0.2,0.1-0.4,0.1-0.6,0.1c-0.3,0-0.4-0.1-0.5-0.2c-0.1-0.3-0.1-0.5,0-0.8c0-0.1,0.1-0.7,0.4-1.6c0.3-1,0.5-1.8,0.6-2.6
		c0.1-0.5,0.2-1,0.3-1.5c0-0.3,0-0.6-0.1-1l0.3-0.1c0.1,0,0.2,0,0.3,0c0.2,0,0.5,0.1,0.6,0.2c0.1,0.2,0.2,0.4,0.1,0.7
		c0,0.1,0,0.2-0.1,0.3L191.9,317.9L191.9,317.9z M201.6,323.7c-0.2-0.3-0.2-0.7-0.2-1.1c0-0.6,0.1-1.2,0.3-1.8
		c0.1-0.3,0.1-0.6,0.3-1s0.2-0.7,0.2-0.9c0.2-0.7,0.1-1.5-0.3-2.1c-0.5-0.5-1.3-0.8-2-0.7c-0.7,0-1.4,0.1-2,0.4
		c-0.5,0.1-0.8,0.5-1,1c0,0.2,0,0.3,0,0.5c0.1,0.1,0.2,0.2,0.4,0.2c0.2-0.3,0.6-0.6,0.9-0.8c0.4-0.2,0.8-0.3,1.3-0.2
		c0.5,0,0.9,0.1,1.3,0.4c0.3,0.4,0.3,0.8,0.2,1.3v0.2c0,0.1,0,0.1,0,0.2l-0.7-0.1h-0.6c-1,0-2,0.2-2.9,0.7c-0.7,0.4-1.3,1.2-1.4,2
		c-0.2,0.6,0,1.3,0.4,1.7c0.5,0.5,1.1,0.7,1.8,0.7c0.4,0,0.9-0.1,1.3-0.2c0.5-0.2,0.9-0.4,1.4-0.8c-0.1,0.2-0.1,0.5,0,0.7
		c0.1,0.2,0.3,0.2,0.5,0.2c0.2,0,0.3,0,0.5-0.1c0.2-0.1,0.4-0.2,0.6-0.3L201.6,323.7z M200.6,320.2c0,0.1,0,0.3-0.1,0.5l-0.1,0.5
		l-0.1,0.5c0,0.2-0.1,0.4-0.1,0.6c-0.3,0.3-0.7,0.5-1.1,0.7c-0.4,0.1-0.7,0.2-1.1,0.2c-0.4,0-0.8-0.1-1.1-0.4
		c-0.3-0.3-0.3-0.7-0.2-1c0.1-0.5,0.4-1,0.9-1.2c0.6-0.3,1.3-0.4,2-0.4h0.5L200.6,320.2L200.6,320.2z M205.5,323.8
		c-0.2,0.1-0.5,0.2-0.7,0.3c-0.2,0.1-0.4,0.1-0.6,0.1c-0.3,0-0.4-0.1-0.5-0.2c-0.1-0.3-0.1-0.6,0-0.8c0.1-0.5,0.3-1.5,0.7-2.8
		s0.6-2.6,0.8-3.5c0.2-0.8,0.3-1.7,0.5-2.6c0.1-0.4,0-0.9-0.1-1.3c0.2-0.1,0.4-0.2,0.7-0.3c0.2-0.1,0.4-0.1,0.6-0.1
		c0.3,0,0.4,0.1,0.5,0.2c0.1,0.3,0.1,0.5,0,0.8c-0.1,0.3-0.3,1.2-0.7,2.7c-0.4,1.4-0.7,2.7-0.9,3.8c-0.2,0.8-0.3,1.7-0.5,2.5
		C205.3,322.9,205.3,323.4,205.5,323.8L205.5,323.8z M101.8,316.9c-0.5-0.5-1.3-0.8-2-0.7c-1.1,0-2.2,0.4-3.1,1.2
		c-0.9,0.8-1.5,1.8-1.7,3c-0.3,1-0.1,2,0.5,2.8c0.7,0.7,1.8,1.1,2.8,1c0.6,0,1.2-0.1,1.8-0.3c0.5-0.2,0.7-0.4,0.8-0.7
		c0-0.1,0-0.2,0-0.4c0-0.1-0.1-0.3-0.2-0.4l0,0.1c-0.3,0.2-0.7,0.3-1,0.5c-0.4,0.1-0.8,0.2-1.1,0.2c-0.7,0.1-1.4-0.2-1.8-0.7
		c-0.4-0.6-0.5-1.3-0.3-1.9v-0.1c0.4,0.1,0.8,0.1,1.2,0.1c0.4,0,0.8,0,1.3,0c0.8,0,1.7-0.1,2.5-0.4c0.5-0.2,0.9-0.7,1-1.3
		C102.5,318.1,102.3,317.4,101.8,316.9z M101,318.6c0,0.3-0.2,0.5-0.5,0.7c-0.4,0.2-0.9,0.2-1.4,0.2h-1.4c-0.4,0-0.8-0.1-1.1-0.1v0
		c0.2-0.6,0.6-1.2,1.1-1.6c0.5-0.4,1.1-0.6,1.7-0.6c0.5,0,0.9,0.1,1.3,0.4C101,317.8,101.1,318.2,101,318.6z"/>
	<path class="st3" d="M215.5,318.7h0.5h0.5c0.8,0,1.6-0.2,2.2-0.7c0.6-0.5,1-1.2,1.2-1.9c0.2-0.6,0.1-1.2-0.3-1.7
		c-0.5-0.4-1.1-0.6-1.8-0.6h-0.5c-0.2,0-0.4,0.1-0.6,0.1c-0.2,0.7-0.4,1.4-0.5,2.1s-0.3,1.3-0.5,2L215.5,318.7L215.5,318.7z
		 M214.9,323.7c-0.3,0.1-0.5,0.2-0.8,0.3c-0.2,0.1-0.4,0.1-0.6,0.1c-0.3,0-0.5-0.1-0.5-0.2c-0.1-0.3-0.1-0.6,0-0.9
		c0.1-0.3,0.2-1,0.5-2.1s0.5-2.2,0.7-3c0.3-1.5,0.5-2.6,0.6-3.4c0.1-0.5,0.1-1.1,0-1.6h0.3c0.3,0,0.9,0,1.5-0.1s1.2-0.1,1.6-0.1
		c1-0.1,1.9,0.2,2.7,0.9c0.6,0.6,0.8,1.6,0.5,2.4c-0.2,1.1-0.9,2.2-1.8,2.9c-1,0.7-2.2,1.1-3.4,1.1h-0.5h-0.5
		c-0.2,0.8-0.3,1.6-0.4,2.4C214.8,322.8,214.8,323.3,214.9,323.7L214.9,323.7z M223.6,317.9l0.1-0.5c0-0.1,0.1-0.2,0.1-0.3
		c0.1-0.2,0-0.5-0.1-0.7c-0.2-0.2-0.4-0.2-0.6-0.2c-0.1,0-0.2,0-0.3,0l-0.3,0.1c0.1,0.3,0.1,0.6,0.1,1c0,0.5-0.1,1-0.3,1.5
		c-0.2,0.8-0.4,1.7-0.6,2.6c-0.3,0.9-0.4,1.5-0.4,1.6c-0.1,0.3-0.1,0.5,0,0.8c0.1,0.1,0.2,0.2,0.5,0.2c0.2,0,0.4,0,0.6-0.1
		c0.2-0.1,0.5-0.1,0.7-0.3c-0.1-0.4-0.2-0.9-0.1-1.3c0-0.7,0.1-1.3,0.3-2c0-0.2,0.1-0.5,0.2-0.7s0.1-0.5,0.2-0.7
		c0.3-0.4,0.7-0.8,1.1-1.1c0.3-0.2,0.6-0.4,0.9-0.4c0.2,0,0.3,0.1,0.4,0.2c0.1,0.1,0.2,0.3,0.2,0.5c0.2-0.1,0.5-0.3,0.6-0.5
		c0.1-0.1,0.2-0.3,0.3-0.5c0.1-0.2,0-0.5-0.2-0.7c-0.2-0.2-0.4-0.3-0.7-0.3c-0.4,0-0.8,0.2-1.2,0.4C224.5,317,224,317.4,223.6,317.9
		L223.6,317.9z M230.5,323.2c0.9,0,1.7-0.3,2.3-0.9c0.7-0.6,1.1-1.3,1.3-2.2c0.2-0.7,0.1-1.5-0.4-2.1c-0.5-0.6-1.2-0.9-1.9-0.8
		c-0.9,0-1.7,0.3-2.3,0.9c-0.7,0.6-1.1,1.4-1.3,2.3c-0.2,0.7-0.1,1.5,0.4,2.1C229,322.9,229.7,323.2,230.5,323.2L230.5,323.2z
		 M230.1,324.3c-1.1,0.1-2.1-0.3-2.8-1.1c-0.6-0.8-0.8-1.9-0.5-2.9c0.3-1.2,0.9-2.3,1.9-3c1-0.8,2.2-1.2,3.5-1.2
		c1-0.1,2,0.3,2.7,1.1c0.6,0.8,0.8,1.8,0.6,2.8c-0.1,0.5-0.3,0.9-0.5,1.4c-0.2,0.4-0.5,0.8-0.8,1.1c-0.6,0.6-1.2,1-1.9,1.4
		C231.6,324.2,230.8,324.4,230.1,324.3L230.1,324.3z M236.6,322.9c0.2,0.1,0.3,0.2,0.5,0.2c0.2,0,0.3,0.1,0.5,0.1
		c0.4,0,0.7-0.1,1-0.3c0.3-0.2,0.4-0.4,0.5-0.7c0.1-0.2,0-0.4,0-0.7c-0.1-0.3-0.3-0.5-0.6-0.7l-0.2-0.2c-0.7-0.7-1.1-1.4-0.9-2
		c0.1-0.2,0.2-0.5,0.3-0.7c0.2-0.2,0.3-0.5,0.5-0.7c0.4-0.4,0.9-0.7,1.4-0.9c0.5-0.2,1-0.3,1.5-0.3c0.2,0,0.4,0,0.5,0.2
		c0.1,0.1,0.2,0.3,0.1,0.4c0,0.1-0.1,0.2-0.1,0.3c-0.1,0.2-0.2,0.3-0.3,0.5c-0.1-0.1-0.2-0.1-0.4-0.1c-0.1,0-0.2,0-0.4,0
		c-0.4,0-0.8,0.1-1.1,0.3c-0.3,0.2-0.5,0.5-0.6,0.8c-0.1,0.4,0.2,0.9,0.8,1.5l0.3,0.4c0.2,0.2,0.4,0.5,0.5,0.8
		c0.1,0.3,0.1,0.5,0,0.8c-0.2,0.7-0.6,1.3-1.3,1.7c-0.7,0.5-1.5,0.7-2.3,0.7c-0.2,0-0.5,0-0.6-0.2c-0.1-0.1-0.2-0.3-0.1-0.5
		c0-0.1,0.1-0.2,0.1-0.3C236.4,323.1,236.5,323,236.6,322.9L236.6,322.9z M243.8,322.4c0.3,0.2,0.6,0.4,0.9,0.5
		c0.3,0.1,0.7,0.2,1,0.2c0.8,0,1.6-0.3,2.2-0.8c0.6-0.5,1.1-1.2,1.3-2c0.2-0.7,0.1-1.4-0.3-2c-0.4-0.5-1.1-0.8-1.8-0.8
		c-0.4,0-0.8,0.1-1.1,0.2c-0.4,0.1-0.9,0.3-1.3,0.6c-0.1,0.5-0.3,1.1-0.4,1.8L243.8,322.4L243.8,322.4z M243.5,323.5
		c0.3,0.2,0.6,0.4,0.9,0.5c0.4,0.1,0.8,0.2,1.2,0.2c2.4-0.1,4.5-1.8,5.1-4.1c0.5-1.5-0.4-3.1-1.9-3.6c-0.3-0.1-0.7-0.1-1.1-0.1
		c-0.5,0-0.9,0.1-1.4,0.2c-0.5,0.2-1,0.4-1.4,0.6c0.1-0.2,0-0.5-0.1-0.6c-0.2-0.2-0.4-0.2-0.6-0.2c-0.1,0-0.2,0-0.4,0l-0.4,0.1
		c0.1,0.4,0.1,0.9,0,1.3c-0.1,0.8-0.2,1.7-0.4,2.5c-0.2,1.1-0.5,2.3-0.9,3.8s-0.6,2.3-0.7,2.7c-0.1,0.2-0.1,0.5,0,0.7
		c0.1,0.1,0.2,0.2,0.5,0.2c0.2,0,0.4,0,0.5-0.1c0.2-0.1,0.5-0.2,0.7-0.3c-0.1-0.4-0.1-0.7-0.1-1.1c0.1-0.6,0.1-1.2,0.3-1.8l0.1-0.5
		L243.5,323.5L243.5,323.5z M253.4,319.4c0.4,0.1,0.8,0.1,1.1,0.1c0.4,0,0.9,0,1.4,0c0.5,0,0.9,0,1.4-0.2c0.3-0.1,0.4-0.4,0.5-0.7
		c0.1-0.4,0-0.8-0.3-1.1c-0.4-0.3-0.8-0.5-1.3-0.4c-0.6,0-1.2,0.2-1.7,0.6C254,318.2,253.6,318.7,253.4,319.4z M257.4,322.5
		c0.1,0.1,0.1,0.3,0.2,0.4c0,0.1,0,0.2,0,0.4c-0.1,0.3-0.3,0.5-0.8,0.7c-0.6,0.2-1.2,0.3-1.8,0.3c-1,0.1-2.1-0.3-2.8-1
		c-0.6-0.8-0.8-1.9-0.5-2.8c0.2-1.2,0.8-2.2,1.7-3c0.8-0.8,1.9-1.2,3.1-1.2c0.7,0,1.5,0.2,2,0.7c0.5,0.5,0.6,1.2,0.4,1.9
		c-0.1,0.6-0.5,1-1,1.3c-0.8,0.3-1.6,0.4-2.5,0.4c-0.4,0-0.8,0-1.3,0s-0.8-0.1-1.2-0.1v0.1c-0.2,0.7-0.1,1.4,0.3,1.9
		c0.5,0.5,1.2,0.8,1.9,0.7c0.4,0,0.8,0,1.1-0.2C256.7,322.9,257,322.7,257.4,322.5L257.4,322.5z M262.2,318c0.4-0.5,0.9-0.9,1.4-1.2
		c0.3-0.2,0.7-0.4,1.2-0.4c0.3,0,0.5,0.1,0.7,0.3c0.2,0.2,0.2,0.4,0.2,0.7c0,0.2-0.1,0.4-0.3,0.5c-0.2,0.2-0.4,0.4-0.6,0.5
		c0-0.2-0.1-0.4-0.2-0.5c-0.1-0.1-0.3-0.2-0.4-0.2c-0.3,0-0.7,0.2-0.9,0.4c-0.4,0.3-0.8,0.7-1.1,1.1c-0.1,0.2-0.1,0.5-0.2,0.7
		s-0.1,0.5-0.2,0.7c-0.1,0.7-0.2,1.3-0.3,2c0,0.4,0,0.9,0.1,1.3c-0.2,0.1-0.4,0.2-0.7,0.3c-0.2,0.1-0.4,0.1-0.6,0.1
		c-0.3,0-0.4-0.1-0.5-0.2c-0.1-0.3-0.1-0.5,0-0.8c0-0.1,0.1-0.7,0.4-1.6s0.5-1.8,0.6-2.6c0.1-0.5,0.2-1,0.3-1.5c0-0.3,0-0.6-0.1-1
		l0.3-0.1c0.1,0,0.2,0,0.3,0c0.2,0,0.5,0.1,0.6,0.2c0.1,0.2,0.2,0.4,0.1,0.7c0,0.1,0,0.2-0.1,0.3L262.2,318L262.2,318z M267.5,323.8
		c-0.1-0.4-0.1-0.8-0.1-1.1c0-0.6,0.1-1.2,0.3-1.8c0.2-0.8,0.4-1.5,0.6-2.4c0.2-0.8,0.4-1.3,0.4-1.4c0.1-0.2,0.1-0.4,0-0.7
		c-0.1-0.1-0.2-0.2-0.5-0.2c-0.2,0-0.4,0-0.6,0.1c-0.2,0.1-0.5,0.1-0.7,0.3c0.1,0.3,0.1,0.7,0.1,1c0,0.5-0.1,1.1-0.3,1.6
		c-0.1,0.6-0.3,1.3-0.5,2.2s-0.4,1.4-0.4,1.6c-0.1,0.3-0.1,0.6,0,0.8c0.1,0.1,0.2,0.2,0.5,0.2c0.2,0,0.4,0,0.6-0.1
		C267.1,323.9,267.4,323.9,267.5,323.8L267.5,323.8z M269.6,313.9c-0.1,0.3-0.2,0.6-0.5,0.8c-0.3,0.2-0.6,0.3-0.9,0.3
		c-0.2,0-0.5-0.1-0.6-0.2c-0.1-0.2-0.2-0.4-0.1-0.6c0.1-0.3,0.2-0.6,0.5-0.8c0.2-0.2,0.5-0.3,0.9-0.3c0.2,0,0.5,0.1,0.6,0.3
		C269.6,313.4,269.7,313.7,269.6,313.9L269.6,313.9z M271.5,317.8h-0.7c-0.2,0-0.3,0-0.4-0.1c-0.1-0.1-0.1-0.2-0.1-0.3
		c0-0.1,0.1-0.2,0.1-0.2c0.1-0.1,0.1-0.2,0.2-0.3h0.5h0.7h0.1l0.1-0.3l0.1-0.3c0.1-0.4,0.1-0.7,0.1-1.1c0-0.3,0-0.6-0.1-0.8
		c0.2-0.1,0.4-0.2,0.7-0.3c0.2-0.1,0.3-0.1,0.5-0.1c0.2,0,0.3,0.1,0.4,0.2c0.1,0.2,0.1,0.4,0,0.7c0,0.1-0.1,0.5-0.3,1.2l-0.2,0.6
		l0.9-0.1h0.7c0.1,0,0.3,0,0.4,0.1c0.1,0.1,0.1,0.2,0,0.3c0,0.1-0.1,0.2-0.1,0.3c-0.1,0.1-0.2,0.3-0.3,0.4c-0.1,0-0.3-0.1-0.4-0.1
		h-0.6h-0.3h-0.5c-0.2,0.8-0.4,1.5-0.5,2s-0.2,1-0.3,1.3c-0.1,0.5-0.2,1-0.1,1.5c0,0.3,0.3,0.5,0.6,0.4c0.1,0,0.2,0,0.3,0
		c0.1,0,0.2-0.1,0.3-0.2c0,0.1,0,0.2,0,0.3c0,0.1,0,0.1,0,0.2c-0.1,0.3-0.2,0.5-0.5,0.6c-0.3,0.2-0.6,0.3-0.9,0.3
		c-0.5,0.1-0.9-0.2-1.2-0.6c-0.2-0.6-0.2-1.2,0-1.7c0-0.2,0.2-0.8,0.5-1.8C271.1,319.3,271.3,318.5,271.5,317.8L271.5,317.8z
		 M275.5,326.6c0.3-0.2,0.6-0.5,0.9-0.8c0.3-0.4,0.6-0.7,0.9-1.2l0.4-0.5c-0.3-1.8-0.8-3.5-1.3-5.2c-0.3-0.8-0.6-1.2-0.9-1.2
		c0.2-0.4,0.4-0.7,0.7-1c0.2-0.2,0.4-0.3,0.7-0.4c0.1,0,0.3,0,0.4,0.1c0.1,0.1,0.2,0.3,0.2,0.4c0,0,0.1,0.7,0.4,2s0.6,2.5,0.9,3.7
		c1.1-1.5,1.9-2.8,2.5-3.7c0.4-0.6,0.8-1.2,1-1.9c0-0.1,0-0.1,0-0.2c0-0.1,0-0.1,0-0.2l0.2-0.1c0.3-0.1,0.6-0.2,0.9-0.2
		c0.2,0,0.3,0,0.4,0.2c0.1,0.1,0.1,0.3,0.1,0.4c-0.5,0.9-1.1,1.8-1.7,2.7c-1.1,1.5-2,2.9-2.9,4.2c-0.2,0.4-0.6,0.9-1,1.5
		c-0.9,1.4-1.5,2.2-1.8,2.2c-0.2,0-0.4-0.1-0.5-0.2C275.7,327,275.6,326.8,275.5,326.6L275.5,326.6z"/>
	<path class="st4" d="M109.7,123.3c1.8-2.7,38.9,42,49.4,39.9s4.3-35.4,7.2-35.8s0.3,47,15.4,48.2s7.2-72.9,11.3-73.6
		c1.8-0.3-1.6,29.4,6.8,31.7s14.5-20.3,15.8-19.8c4.3,1.5-35.7,67.4-17.4,74s20.1-40.2,24.4-46c4.5-6.1-2.9,16.4,5.8,20
		s38.9-32.1,35.3-24.6c-5.5,11.4-93.9,79.4-49.3,117.1h-54.1c7.9-9.1,14-20,13.2-37.5C171.9,187.4,107.9,126,109.7,123.3z"/>
	<path class="st5" d="M118.1,48.6l-0.8-3.7l-2.1,0.1l-2.1,0.1l-0.4,3.8c-1.4,0.4-2.7,0.9-3.9,1.7l-3-2.3l-1.5,1.4l-1.5,1.4l2.1,3.2
		c-0.8,1.1-1.5,2.4-1.9,3.7l-3.8,0.2L99,60.3l-0.3,2.1l3.7,1.1c0.1,1.4,0.5,2.8,1,4.1l-2.8,2.6l1.1,1.8l1.1,1.7l3.5-1.5
		c1,1,2.1,1.8,3.4,2.5l-0.5,3.8l2,0.6l2,0.6l1.7-3.4c0.7,0.1,1.4,0.1,2.1,0c0.7,0,1.4-0.1,2.1-0.3l2.1,3.2l1.9-0.8l1.9-0.8l-0.9-3.7
		c1.2-0.8,2.2-1.8,3.1-2.9l3.7,1.1l0.9-1.9l0.9-1.9l-3.1-2.3c0.4-1.4,0.5-2.8,0.5-4.2l3.5-1.5l-0.5-2l-0.5-2l-3.8,0.3
		c-0.6-1.3-1.4-2.5-2.3-3.5l1.8-3.4l-1.7-1.3l-1.7-1.3l-2.8,2.6C120.9,49.2,119.5,48.8,118.1,48.6L118.1,48.6z M115.8,55.3
		c3.9-0.2,7.3,2.8,7.5,6.7c0.2,3.9-2.8,7.3-6.7,7.5s-7.3-2.8-7.5-6.7c0,0,0,0,0,0C108.9,58.8,111.9,55.5,115.8,55.3z"/>
	<path class="st6" d="M137.4,3.6L136.1,0L134,0.4l-2.1,0.4v3.9c-1.3,0.5-2.6,1.2-3.7,2.1l-3.3-2l-1.4,1.6L122.2,8l2.5,2.9
		c-0.7,1.3-1.2,2.6-1.5,4l-3.8,0.6v4.3l3.8,0.6c0.3,1.4,0.8,2.7,1.4,4l-2.5,2.9l1.4,1.6l1.4,1.6l3.3-2c1.1,0.9,2.4,1.6,3.7,2.1v3.9
		l2.1,0.4l2.1,0.4l1.3-3.6c0.7,0,1.4-0.1,2.1-0.2c0.7-0.1,1.4-0.3,2.1-0.5l2.5,3l1.8-1.1l1.8-1.1l-1.3-3.7c1.1-0.9,2-2,2.7-3.3
		l3.8,0.7l0.7-2l0.7-2l-3.4-1.9c0.2-1.4,0.2-2.8,0-4.3l3.4-1.9l-0.7-2l-0.7-2l-3.8,0.7c-0.7-1.2-1.7-2.3-2.7-3.3l1.4-3.6l-1.8-1.1
		l-1.8-1.1l-2.5,3C140.2,3.9,138.8,3.7,137.4,3.6L137.4,3.6z M135.8,10.6c3.9-0.7,7.7,1.9,8.3,5.8c0.7,3.9-1.9,7.7-5.8,8.3
		c-3.9,0.7-7.7-1.9-8.3-5.8c0,0,0,0,0,0C129.3,15.1,131.9,11.3,135.8,10.6C135.8,10.6,135.8,10.6,135.8,10.6L135.8,10.6z"/>
	<path class="st7" d="M232.3,41.7l-0.7-4.2h-2.4h-2.4l-0.7,4.2c-1.5,0.3-3,0.9-4.4,1.6l-3.3-2.8l-1.8,1.5l-1.8,1.5l2.2,3.7
		c-1,1.2-1.8,2.6-2.3,4.1h-4.3l-0.4,2.3l-0.4,2.3l4.1,1.4c0,1.6,0.3,3.1,0.9,4.6l-3.3,2.8l1.2,2l1.2,2l4-1.5c1.1,1.2,2.3,2.2,3.6,3
		l-0.8,4.2l2.2,0.8l2.2,0.8l2.1-3.8c0.8,0.1,1.6,0.2,2.4,0.2c0.8,0,1.6-0.1,2.4-0.2l2.1,3.7l2.2-0.8l2.2-0.8l-0.8-4.2
		c1.3-0.8,2.5-1.9,3.6-3.1l4,1.5l1.2-2l1.2-2l-3.3-2.7c0.5-1.5,0.8-3.1,0.8-4.6l4-1.5l-0.4-2.3l-0.4-2.3l-4.3,0.1
		c-0.6-1.5-1.4-2.8-2.4-4.1l2.1-3.7l-1.8-1.5l-1.8-1.5l-3.2,2.8C235.3,42.6,233.8,42,232.3,41.7L232.3,41.7z M229.3,49
		c4.4-0.1,8,3.5,8.1,7.9c0.1,4.4-3.5,8-7.9,8.1s-8-3.5-8.1-7.9c0,0,0-0.1,0-0.1C221.4,52.6,224.9,49.1,229.3,49L229.3,49z"/>
	<path class="st8" d="M112,136.8l-0.4-2.6h-1.4h-1.4l-0.5,2.5c-0.9,0.2-1.8,0.5-2.7,0.9l-1.9-1.8l-1.1,0.9l-1.1,0.9l1.3,2.3
		c-0.6,0.7-1.1,1.5-1.5,2.4l-2.6-0.1l-0.3,1.4l-0.3,1.4l2.4,0.9c0,0.9,0.1,1.9,0.4,2.8l-2,1.6l0.7,1.2l0.7,1.2l2.4-0.8
		c0.6,0.7,1.3,1.4,2.1,1.9l-0.5,2.5l1.3,0.5l1.3,0.5l1.3-2.2c0.9,0.2,1.9,0.2,2.8,0.1l1.2,2.3l1.3-0.5l1.3-0.5l-0.4-2.5
		c0.8-0.5,1.6-1.1,2.2-1.8l2.4,1l0.7-1.2l0.7-1.2l-2-1.7c0.3-0.9,0.5-1.8,0.6-2.8l2.5-0.8l-0.2-1.4l-0.2-1.4h-2.6
		c-0.3-0.9-0.8-1.7-1.4-2.5l1.4-2.2l-1.1-0.9l-1.1-0.9l-2,1.6c-0.8-0.5-1.7-0.8-2.6-1L112,136.8z M110,141.1
		c2.6,0.1,4.7,2.3,4.7,4.9c-0.1,2.6-2.3,4.7-4.9,4.7c-2.6-0.1-4.7-2.3-4.7-4.9C105.2,143.2,107.4,141.1,110,141.1L110,141.1z"/>
	<path class="st9" d="M209.3,75.6L208,72l-2,0.4l-2,0.4v3.8c-1.3,0.5-2.6,1.2-3.7,2.1l-3.3-1.9l-1.3,1.6l-1.4,1.6l2.5,2.9
		c-0.7,1.2-1.2,2.5-1.4,3.9l-3.8,0.6v4.2l3.8,0.6c0.3,1.4,0.8,2.7,1.4,3.9l-2.5,2.9l1.3,1.6l1.3,1.6l3.3-1.9
		c1.1,0.9,2.3,1.6,3.6,2.1v3.8l2,0.4l2,0.4l1.3-3.6c0.7,0,1.4-0.1,2.1-0.2c0.7-0.1,1.3-0.3,2-0.5l2.4,2.9l1.8-1l1.8-1l-1.3-3.6
		c1-0.9,2-2,2.7-3.2l3.7,0.7l0.7-2l0.7-2l-3.3-1.9c0.2-1.4,0.2-2.8,0-4.2l3.3-1.9l-0.7-2l-0.7-2l-3.7,0.7c-0.7-1.2-1.6-2.3-2.7-3.2
		l1.3-3.6l-1.8-1l-1.8-1l-2.4,3C212.1,75.8,210.7,75.6,209.3,75.6L209.3,75.6z M207.8,82.4c3.8-0.7,7.5,1.9,8.2,5.7
		c0.7,3.8-1.9,7.5-5.7,8.2c-3.8,0.7-7.5-1.9-8.2-5.7c0,0,0,0,0,0C201.4,86.7,203.9,83.1,207.8,82.4L207.8,82.4z"/>
	<path class="st10" d="M279.1,65c1.5,0.1,3,0.3,4.5,0.7l1.4-2.4l3-5.3l3,1.1l3,1.1l-1.2,6l-0.5,2.7c1.3,0.7,2.6,1.5,3.8,2.5l2.2-1.6
		l4.9-3.6l2.3,2.3l2.3,2.3l-3.5,5l-1.6,2.2c0.9,1.2,1.8,2.5,2.5,3.8l2.7-0.6l6-1.3l1.2,3l1.2,3l-5.2,3.1l-2.3,1.4
		c0.3,1.5,0.6,3,0.7,4.5l2.7,0.6l6,1.3l-0.1,3.2l-0.1,3.2l-6,0.7l-2.7,0.3c-0.3,1.5-0.7,3-1.1,4.4l2.2,1.6l4.9,3.6l-1.4,2.9
		l-1.4,2.9l-5.8-1.8l-2.6-0.8c-0.9,1.2-1.8,2.4-2.8,3.5l1.4,2.4l3,5.3l-2.5,2.1l-2.5,2.1l-4.6-4l-2.1-1.8c-1.3,0.8-2.6,1.5-4,2.1
		l0.3,2.7l0.6,6l-3.1,0.9l-3.1,0.9l-2.6-5.5l-1.2-2.5c-0.8,0.1-1.5,0.2-2.3,0.2s-1.5,0.1-2.3,0.1l-0.9,2.6l-1.9,5.9l-3.2-0.5
		l-3.2-0.5l-0.1-6.1v-2.7c-1.5-0.4-2.9-1-4.3-1.6l-1.8,2l-4.1,4.5l-2.7-1.7l-2.7-1.7l2.4-5.6l1.1-2.5c-1.1-1-2.2-2-3.2-3.2l-2.5,1.1
		l-5.6,2.5l-1.8-2.7l-1.8-2.7l4.5-4.1l2-1.9c-0.7-1.4-1.2-2.8-1.7-4.2h-8.8l-0.5-3.2l-0.5-3.2l5.8-2l2.6-0.9c0-1.5,0-3,0.2-4.5
		l-2.5-1.1l-5.6-2.4l0.8-3.1l0.8-3.1l6.1,0.5l2.7,0.2c0.6-1.4,1.2-2.8,2-4.1l-1.8-2l-4.1-4.5l2-2.5l2-2.5l5.3,3l2.4,1.3
		c1.1-1,2.3-2,3.5-2.9l-0.8-2.6l-1.9-5.8l2.9-1.5l2.9-1.5l3.7,4.9l1.6,2.2c1.4-0.5,2.9-0.9,4.4-1.2l0.3-2.7l0.6-6l3.2-0.2l3.2-0.2
		l1.4,5.9l0.6,2.7L279.1,65z M275.7,86.1c-6.6,0.4-11.7,6.1-11.3,12.7c0.4,6.6,6.1,11.7,12.7,11.3c6.6-0.4,11.7-6.1,11.3-12.7
		c0,0,0,0,0,0C288,90.7,282.3,85.7,275.7,86.1z M275.2,78.4c-10.8,0.7-19.1,10-18.4,20.8c0.7,10.8,10,19.1,20.8,18.4
		c10.8-0.7,19.1-10,18.4-20.8C295.4,86.1,286.1,77.8,275.2,78.4C275.2,78.4,275.2,78.4,275.2,78.4L275.2,78.4z"/>
	<path class="st7" d="M134,83.4l-1-5.2l-2.9,0l-2.9,0l-0.8,5.2c-1.9,0.4-3.7,1.1-5.4,2.1l-4.1-3.4l-2.2,1.9l-2.2,1.9l2.8,4.5
		c-1.2,1.5-2.1,3.2-2.8,5.1h-5.3l-0.4,2.9l-0.4,2.9l5,1.7c0.1,1.9,0.4,3.9,1.1,5.7l-4,3.4l1.5,2.5l1.5,2.5l4.9-1.9
		c1.3,1.4,2.8,2.7,4.5,3.6l-0.9,5.2l2.7,0.9l2.7,0.9l2.5-4.6c1.9,0.3,3.9,0.2,5.8-0.1l2.7,4.5l2.7-1l2.7-1l-1.1-5.2
		c1.6-1,3.1-2.3,4.4-3.8l5,1.8l1.4-2.5l1.4-2.5l-4.1-3.3c0.6-1.8,0.9-3.8,0.9-5.7l4.9-1.9l-0.5-2.8l-0.5-2.8l-5.3,0.1
		c-0.7-1.8-1.8-3.5-3-5l2.6-4.6l-2.2-1.8l-2.2-1.8l-3.9,3.5C137.7,84.3,135.9,83.7,134,83.4z M130.5,95.9c3.4-0.1,6.3,2.7,6.3,6.1
		s-2.7,6.3-6.1,6.3c-3.4,0.1-6.3-2.7-6.3-6.1C124.3,98.8,127,96,130.5,95.9C130.4,95.9,130.4,95.9,130.5,95.9z M130.4,92.4
		c5.4-0.1,9.9,4.2,10,9.6s-4.2,9.9-9.6,10c-5.4,0.1-9.8-4.2-10-9.6C120.7,97,124.9,92.5,130.4,92.4
		C130.4,92.4,130.4,92.4,130.4,92.4z"/>
	<path class="st11" d="M288.2,25.1l0.4-4l-2.1-0.6l-2.1-0.6l-1.7,3.7c-1.5-0.1-3,0-4.4,0.4l-2.3-3.4l-2,0.9l-2,0.9l1,3.9
		c-1.2,0.9-2.3,1.9-3.2,3.1l-3.9-1.1l-1,2l-1,2l3.3,2.3c-0.4,1.4-0.5,2.9-0.4,4.4l-3.7,1.6l0.6,2.1l0.6,2.1l4-0.4
		c0.7,1.3,1.5,2.6,2.5,3.7l-1.8,3.6l1.8,1.3l1.8,1.3l2.9-2.9c1.4,0.6,2.8,1,4.3,1.2l1,3.9l2.2-0.2l2.2-0.2l0.3-4
		c1.4-0.4,2.8-1,4-1.9l3.3,2.4l1.6-1.6l1.6-1.6l-2.3-3.3c0.8-1.2,1.5-2.6,1.9-4l4-0.3l0.2-2.2l0.2-2.2l-3.9-1
		c-0.2-1.5-0.5-2.9-1.1-4.3l2.9-2.8l-1.3-1.8l-1.3-1.8l-3.7,1.7C290.7,26.7,289.5,25.8,288.2,25.1L288.2,25.1z M282.9,33.6
		c2.6,0.7,4,3.3,3.3,5.9c-0.7,2.6-3.3,4-5.9,3.3c-2.6-0.7-4-3.3-3.3-5.9c0,0,0,0,0,0C277.7,34.4,280.4,32.9,282.9,33.6z M283.6,31
		c4,1.1,6.3,5.2,5.2,9.2c-1.1,4-5.2,6.3-9.2,5.2c-4-1.1-6.3-5.2-5.2-9.2c0,0,0,0,0,0C275.5,32.2,279.6,29.9,283.6,31L283.6,31z"/>
	<path class="st12" d="M80.3,56.4l-1-4.2l-2.4,0.1l-2.4,0.1l-0.4,4.3c-1.5,0.4-3,1-4.3,1.9l-3.4-2.6l-1.7,1.6l-1.7,1.6l2.5,3.6
		c-0.9,1.3-1.6,2.7-2.1,4.2L59,67.3l-0.3,2.3L58.4,72l4.1,1.2c0.1,1.6,0.5,3.1,1.1,4.6l-3.1,2.9l1.3,2l1.3,2l3.9-1.8
		c1.1,1.1,2.4,2.1,3.8,2.8l-0.5,4.3l2.3,0.7l2.3,0.7l1.9-3.9c1.6,0.1,3.2,0,4.7-0.3l2.3,3.6l2.2-0.9l2.2-0.9l-1-4.2
		c1.3-0.9,2.5-2,3.4-3.3l4.1,1.3l1.1-2.1l1.1-2.1l-3.5-2.5c0.4-1.5,0.6-3.1,0.5-4.7l4-1.7l-0.6-2.3l-0.6-2.3l-4.3,0.3
		c-0.7-1.4-1.5-2.8-2.6-3.9l2-3.8l-1.9-1.4L88,54.8l-3.1,3c-1.4-0.7-3-1.1-4.5-1.3L80.3,56.4z M77.7,63.9c4.4-0.3,8.2,3.1,8.5,7.5
		c0.3,4.4-3.1,8.2-7.5,8.5c-4.4,0.3-8.2-3.1-8.5-7.5c0,0,0,0,0,0C69.9,68,73.2,64.2,77.7,63.9C77.6,63.9,77.6,63.9,77.7,63.9
		L77.7,63.9z"/>
	<path class="st13" d="M82.4,96.2c1,0.1,2,0.2,3,0.5l0.9-1.6l2-3.5l2,0.8l2,0.8l-0.8,4l-0.4,1.8c0.9,0.5,1.8,1,2.6,1.6l1.5-1.1
		l3.3-2.4l1.6,1.5l1.6,1.5l-2.3,3.4l-1.1,1.5c0.6,0.8,1.2,1.7,1.7,2.5l1.8-0.4l4-0.9l0.8,2l0.8,2l-3.5,2.1l-1.6,0.9
		c0.2,1,0.4,2,0.5,3l1.8,0.4l4,0.9l-0.1,2.2l-0.1,2.2l-4.1,0.5l-1.8,0.2c-0.2,1-0.4,2-0.8,3l1.5,1.1l3.3,2.4l-1,1.9l-1,2l-3.9-1.2
		l-1.8-0.5c-0.6,0.8-1.2,1.6-1.9,2.4l0.9,1.6l2,3.5l-1.5,1.3l-1.7,1.4l-3.1-2.7l-1.4-1.2c-0.9,0.5-1.8,1-2.7,1.4l0.2,1.8l0.4,4.1
		l-2.1,0.6l-2.1,0.6l-1.7-3.7l-0.8-1.7c-0.5,0.1-1,0.1-1.5,0.1s-1,0-1.5,0l-0.6,1.8l-1.3,3.9l-2.1-0.3l-2.1-0.3l-0.1-4.1v-1.8
		c-1-0.3-1.9-0.6-2.9-1.1l-1.2,1.4l-2.7,3l-1.8-1.2l-1.9-1.1l1.6-3.8l0.7-1.7c-0.8-0.7-1.5-1.4-2.2-2.1l-1.7,0.8l-3.8,1.7l-1.2-1.8
		l-1.2-1.8l3-2.8l1.4-1.3c-0.4-0.9-0.8-1.9-1.1-2.9h-5.9l-0.4-2.1l-0.4-2.1l3.9-1.3l1.7-0.6c0-1,0-2,0.1-3l-1.7-0.8l-3.7-1.7
		l0.6-2.1l0.5-2.1l4.1,0.4l1.8,0.2c0.4-0.9,0.9-1.9,1.4-2.7l-1.2-1.4l-2.7-3l1.4-1.7l1.4-1.7l3.6,2l1.6,0.9c0.7-0.7,1.5-1.3,2.4-1.9
		L67,98.6l-1.3-3.9l1.9-1l1.9-1l2.5,3.3l1.1,1.5c1-0.3,1.9-0.6,2.9-0.8l0.2-1.8l0.4-4.1l2.2-0.1l2.2-0.1l0.9,4L82.4,96.2L82.4,96.2z
		 M80.1,110.4c-4.4,0.3-7.8,4.1-7.6,8.5c0.3,4.4,4.1,7.8,8.5,7.6c4.4-0.3,7.8-4.1,7.6-8.5c0,0,0,0,0,0
		C88.3,113.5,84.5,110.1,80.1,110.4z M79.8,105.2c-7.3,0.5-12.8,6.7-12.4,14s6.7,12.8,14,12.4c7.3-0.5,12.8-6.7,12.4-14
		C93.3,110.3,87.1,104.8,79.8,105.2C79.8,105.2,79.8,105.2,79.8,105.2L79.8,105.2z"/>
	<path class="st3" d="M170.2,30.3c1.2,0.1,2.5,0.2,3.7,0.4l1-2l2.3-4.4l2.5,0.8l2.5,0.8l-0.8,4.9l-0.4,2.2c1.1,0.6,2.2,1.2,3.2,1.9
		l1.8-1.4l3.9-3.1l1.9,1.8l1.9,1.8l-2.7,4.1l-1.2,1.9c0.8,0.9,1.5,2,2.1,3l2.2-0.5l4.8-1.2l1,2.4l1,2.4l-4.1,2.7l-1.9,1.2
		c0.3,1.2,0.6,2.4,0.7,3.6l2.2,0.4l4.9,0.9v2.6v2.6L198,61l-2.2,0.4c-0.2,1.2-0.5,2.4-0.8,3.6l1.9,1.2L201,69l-1.1,2.4l-1.1,2.4
		l-4.8-1.3l-2.1-0.6c-0.7,1-1.4,2.1-2.2,3l1.2,1.9l2.6,4.2l-2,1.8l-2,1.7l-3.8-3.1l-1.7-1.4c-1,0.7-2.1,1.3-3.2,1.8L181,84l0.7,4.9
		l-2.5,0.8l-2.5,0.8l-2.2-4.4l-1-2c-0.6,0.1-1.2,0.2-1.8,0.2s-1.2,0.1-1.9,0.1l-0.6,2.1l-1.4,4.8l-2.6-0.3l-2.6-0.3l-0.3-4.9
		l-0.1-2.2c-1.2-0.3-2.4-0.7-3.5-1.2l-1.4,1.7l-3.2,3.8l-2.3-1.3l-2.3-1.3l1.8-4.6l0.8-2.1c-1-0.8-1.9-1.6-2.7-2.5l-2,1l-4.5,2.2
		l-1.5-2.1l-1.5-2.1l3.5-3.5l1.6-1.6c-0.6-1.1-1.1-2.2-1.5-3.4l-2.2,0.1l-5,0.2l-0.5-2.6l-0.5-2.6l4.6-1.8l2.1-0.8
		c-0.1-1.2-0.1-2.5,0-3.7l-2.1-0.8l-4.5-1.9l0.6-2.6l0.6-2.6l4.9,0.3l2.2,0.1c0.4-1.2,0.9-2.3,1.5-3.4l-1.5-1.6l-3.4-3.6l1.6-2.1
		l1.6-2.1l4.4,2.3l2,1c0.9-0.9,1.8-1.7,2.8-2.4l-0.8-2.1l-1.7-4.6l2.3-1.3l2.3-1.3l3.1,3.9l1.4,1.7c1.2-0.4,2.3-0.8,3.5-1.1l0.1-2.2
		l0.3-4.9l2.6-0.3l2.6-0.3l1.3,4.8L170.2,30.3L170.2,30.3z M168.1,47.6c-5.4,0.5-9.3,5.3-8.8,10.7c0.5,5.4,5.3,9.3,10.6,8.8
		s9.3-5.3,8.8-10.7c0,0,0,0,0,0C178.2,51,173.4,47.1,168.1,47.6z M167.5,41.4c-8.8,0.8-15.2,8.7-14.4,17.5
		c0.8,8.8,8.7,15.2,17.5,14.4c8.8-0.8,15.2-8.7,14.4-17.5c0,0,0,0,0,0C184.1,47,176.3,40.5,167.5,41.4L167.5,41.4z"/>
	
		<ellipse transform="matrix(0.9982 -6.070012e-02 6.070012e-02 0.9982 -8.4533 9.4579)" class="st10" cx="151.4" cy="143.9" rx="10.6" ry="10.6"/>
	
		<ellipse transform="matrix(0.9982 -6.070012e-02 6.070012e-02 0.9982 -9.4663 11.2817)" class="st3" cx="181" cy="161.4" rx="6.4" ry="6.4"/>
	
		<ellipse transform="matrix(0.9982 -6.052591e-02 6.052591e-02 0.9982 -7.038 12.4671)" class="st13" cx="202.3" cy="122.4" rx="5.4" ry="5.4"/>
	
		<ellipse transform="matrix(0.9982 -6.052591e-02 6.052591e-02 0.9982 -1.9781 7.3414)" class="st14" cx="120.2" cy="36.3" rx="4.5" ry="4.5"/>
	
		<ellipse transform="matrix(0.9982 -6.070012e-02 6.070012e-02 0.9982 -10.3101 12.6503)" class="st7" cx="203.1" cy="176" rx="6.5" ry="6.5"/>
	
		<ellipse transform="matrix(0.9982 -6.070012e-02 6.070012e-02 0.9982 -0.4678 10.2071)" class="st13" cx="167.8" cy="12.8" rx="5.3" ry="5.3"/>
	
		<ellipse transform="matrix(0.9981 -6.087433e-02 6.087433e-02 0.9981 -8.7079 14.483)" class="st15" cx="233.3" cy="150.2" rx="7" ry="7"/>
	
		<ellipse transform="matrix(0.9981 -6.087433e-02 6.087433e-02 0.9981 -1.7877 12.7459)" class="st16" cx="208.3" cy="35.7" rx="6" ry="5.9"/>
	
		<ellipse transform="matrix(0.9981 -6.087433e-02 6.087433e-02 0.9981 -2.9167 18.526)" class="st7" cx="302.6" cy="57.1" rx="5.3" ry="5.3"/>
	<circle class="st14" cx="172.2" cy="109.2" r="14.8"/>
	<circle class="st10" cx="195.7" cy="19.8" r="9"/>
	<circle class="st17" cx="52.5" cy="90.8" r="7.1"/>
	<circle class="st3" cx="227.2" cy="127.5" r="11.1"/>
	<circle class="st3" cx="245.3" cy="27.3" r="10.4"/>
	
		<ellipse transform="matrix(0.9982 -6.070012e-02 6.070012e-02 0.9982 -1.1081 13.8215)" class="st5" cx="226.9" cy="25.1" rx="5.1" ry="5.1"/>
</g>
</svg>
